<svg width="40" height="40" viewBox="0 0 40 40" fill="none" xmlns="http://www.w3.org/2000/svg">
<g clip-path="url(#clip0_58_3107)">
<rect width="40" height="40" rx="8" fill="#FDB0B0"/>
<path d="M11.81 11.81C11.9607 11.6591 12.1397 11.5393 12.3368 11.4576C12.5338 11.3759 12.745 11.3339 12.9583 11.3339C13.1716 11.3339 13.3829 11.3759 13.5799 11.4576C13.7769 11.5393 13.9559 11.6591 14.1067 11.81L20 17.7012L25.8933 11.81C26.0441 11.6592 26.2232 11.5396 26.4202 11.458C26.6172 11.3763 26.8284 11.3343 27.0417 11.3343C27.2549 11.3343 27.4661 11.3763 27.6631 11.458C27.8602 11.5396 28.0392 11.6592 28.19 11.81C28.3408 11.9608 28.4604 12.1398 28.542 12.3369C28.6236 12.5339 28.6657 12.7451 28.6657 12.9583C28.6657 13.1716 28.6236 13.3828 28.542 13.5798C28.4604 13.7768 28.3408 13.9559 28.19 14.1067L22.2988 20L28.19 25.8933C28.4946 26.1979 28.6657 26.611 28.6657 27.0417C28.6657 27.4724 28.4946 27.8854 28.19 28.19C27.8854 28.4946 27.4724 28.6657 27.0417 28.6657C26.611 28.6657 26.1979 28.4946 25.8933 28.19L20 22.2988L14.1067 28.19C13.8021 28.4946 13.389 28.6657 12.9583 28.6657C12.5276 28.6657 12.1146 28.4946 11.81 28.19C11.5054 27.8854 11.3343 27.4724 11.3343 27.0417C11.3343 26.611 11.5054 26.1979 11.81 25.8933L17.7012 20L11.81 14.1067C11.6591 13.9559 11.5393 13.7769 11.4576 13.5799C11.3759 13.3829 11.3339 13.1716 11.3339 12.9583C11.3339 12.745 11.3759 12.5338 11.4576 12.3368C11.5393 12.1397 11.6591 11.9607 11.81 11.81Z" fill="#1E1E1E"/>
</g>
<defs>
<clipPath id="clip0_58_3107">
<rect width="40" height="40" rx="8" fill="white"/>
</clipPath>
</defs>
</svg>
