<svg width="40" height="40" viewBox="0 0 40 40" fill="none" xmlns="http://www.w3.org/2000/svg">
<rect width="40" height="40" rx="8" fill="#F8FAB0"/>
<path d="M29.75 25.4167V15.6667H14.5833V25.4167H29.75ZM29.75 10.25C30.3246 10.25 30.8757 10.4783 31.2821 10.8846C31.6884 11.2909 31.9167 11.842 31.9167 12.4167V25.4167C31.9167 25.9913 31.6884 26.5424 31.2821 26.9487C30.8757 27.3551 30.3246 27.5833 29.75 27.5833H14.5833C14.0087 27.5833 13.4576 27.3551 13.0513 26.9487C12.6449 26.5424 12.4167 25.9913 12.4167 25.4167V12.4167C12.4167 11.842 12.6449 11.2909 13.0513 10.8846C13.4576 10.4783 14.0087 10.25 14.5833 10.25H15.6667V8.08334H17.8333V10.25H26.5V8.08334H28.6667V10.25H29.75ZM10.25 29.75H25.4167V31.9167H10.25C9.67537 31.9167 9.12427 31.6884 8.71794 31.2821C8.31161 30.8757 8.08334 30.3246 8.08334 29.75V16.75H10.25V29.75ZM27.5833 23.25H23.25V18.9167H27.5833V23.25Z" fill="black"/>
</svg>
